<?xml version="1.0" standalone="no"?>
<!DOCTYPE svg PUBLIC "-//W3C//DTD SVG 20010904//EN"
 "http://www.w3.org/TR/2001/REC-SVG-20010904/DTD/svg10.dtd">
<svg version="1.0" xmlns="http://www.w3.org/2000/svg"
 width="200.000000pt" height="200.000000pt" viewBox="0 0 200.000000 200.000000"
 preserveAspectRatio="xMidYMid meet">
<metadata>
Created by potrace 1.16, written by Peter Selinger 2001-2019
</metadata>
<g transform="translate(0.000000,200.000000) scale(0.100000,-0.100000)"
fill="#000000" stroke="none">
<path d="M635 1717 c-189 -102 -317 -253 -385 -457 -31 -93 -39 -288 -16 -396
22 -100 90 -241 155 -321 65 -79 174 -164 265 -207 122 -58 116 -60 116 28 l0
76 60 0 60 0 0 -77 0 -77 31 30 c79 75 172 251 208 394 28 109 41 300 20 300
-8 0 -127 -27 -265 -61 l-252 -62 -88 48 c-112 60 -99 46 34 -34 56 -35 102
-67 102 -71 0 -17 -82 -150 -92 -150 -6 0 -50 23 -97 52 -202 121 -211 129
-211 187 0 41 37 80 85 91 56 14 728 120 755 120 20 0 22 3 15 37 -24 129
-118 308 -221 421 -55 61 -185 162 -208 162 -6 0 -38 -15 -71 -33z m362 -972
c29 -49 53 -94 53 -100 0 -5 -24 -50 -53 -100 l-53 -90 -114 0 -113 0 -53 90
c-30 49 -54 95 -54 101 0 12 80 154 100 179 11 13 33 15 123 13 l111 -3 53
-90z"/>
<path d="M739 773 c-27 -31 -69 -111 -69 -130 0 -10 18 -46 40 -81 l40 -63 82
3 83 3 33 55 c48 81 49 89 5 161 l-38 64 -81 3 c-67 2 -83 0 -95 -15z m204
-61 l38 -63 -33 -60 c-36 -68 -57 -81 -127 -78 -65 3 -67 5 -107 73 l-36 61
27 50 c47 84 50 86 129 83 l71 -3 38 -63z"/>
</g>
</svg>
